<svg width="122" height="41" viewBox="0 0 122 41" fill="none" xmlns="http://www.w3.org/2000/svg">
<path fill-rule="evenodd" clip-rule="evenodd" d="M17.5403 3.53689C21.6244 1.17896 23.6664 0 25.9087 0C28.151 0 30.193 1.17896 34.2771 3.53689L36.3831 4.75282C40.4672 7.11074 42.5092 8.28971 43.6304 10.2316C44.4605 11.6694 44.676 13.3354 44.7319 16.0177C40.1909 18.1703 34.1703 20.3468 27.4441 22.1481C19.6417 24.2376 12.4096 25.4153 7.10512 25.6169C7.06592 24.5112 7.06592 23.2212 7.06592 21.6791V19.2473C7.06592 14.5314 7.06592 12.1735 8.18707 10.2316C9.30822 8.28971 11.3502 7.11074 15.4343 4.75281L17.5403 3.53689ZM38.6054 21.8164C40.8603 20.9682 42.9258 20.098 44.7515 19.2317V19.2473V21.6791C44.7515 26.395 44.7515 28.7529 43.6304 30.6948C42.5092 32.6367 40.4672 33.8156 36.3831 36.1736L34.2771 37.3895L34.277 37.3895C30.193 39.7474 28.151 40.9264 25.9087 40.9264C23.6664 40.9264 21.6244 39.7474 17.5403 37.3895L15.4343 36.1736C11.3502 33.8156 9.30822 32.6367 8.18707 30.6948C7.85756 30.1241 7.62489 29.5174 7.4606 28.8255C9.9784 28.7111 12.9104 28.3839 16.1181 27.8506C18.3913 30.9443 22.0556 32.9522 26.1889 32.9522C32.6292 32.9522 37.9309 28.0774 38.6054 21.8164ZM27.3667 22.0458C31.4204 20.9602 35.2011 19.7296 38.5169 18.4529C37.5555 12.5112 32.402 7.97424 26.1889 7.97424C19.2915 7.97424 13.7 13.5657 13.7 20.4632C13.7 21.9595 13.9631 23.3944 14.4456 24.724C18.3251 24.1829 22.7392 23.2851 27.3667 22.0458Z" fill="white"/>
<path fill-rule="evenodd" clip-rule="evenodd" d="M27.2839 25.3716C40.6094 21.8029 51.1651 16.7619 52.9338 13.3508C53.2629 17.9345 42.574 24.4993 28.3698 28.3032C14.8765 31.9167 2.88573 31.7869 0 28.2204C4.18222 29.6859 15.0298 28.6533 27.2839 25.3716Z" fill="white"/>
<path fill-rule="evenodd" clip-rule="evenodd" d="M6.36764 20.2689C4.27923 21.6588 3.19282 22.9418 3.45908 23.936C3.67109 24.7276 4.71737 25.2492 6.39874 25.5098C6.36764 24.4307 6.36764 23.1868 6.36764 21.7242V20.2689ZM45.4227 15.5959C47.5271 14.1997 48.623 12.9106 48.3557 11.9125C48.107 10.9838 46.7101 10.4267 44.4865 10.2268C45.1593 11.588 45.3618 13.1879 45.4227 15.5959Z" fill="white"/>
<path d="M68.449 8.47208V10.2309H63.389V12.5038H67.6913V14.2627H63.389V16.5356H68.449V18.2944H62.4013C62.1307 18.2944 61.9052 18.2042 61.7248 18.0238C61.5445 17.8344 61.4543 17.6089 61.4543 17.3474V9.41914C61.4543 9.15757 61.5445 8.93659 61.7248 8.7562C61.9052 8.56679 62.1307 8.47208 62.4013 8.47208H68.449ZM78.6476 11.0833C80.0186 11.0833 80.7041 11.7958 80.7041 13.2209V18.2944H78.8235V13.8568C78.8235 13.487 78.7423 13.2164 78.58 13.045C78.4266 12.8736 78.1696 12.788 77.8088 12.788C77.3307 12.788 76.7535 12.9413 76.077 13.248V18.2944H74.1964V13.8568C74.1964 13.487 74.1198 13.2164 73.9664 13.045C73.8131 12.8736 73.556 12.788 73.1953 12.788C72.7172 12.788 72.14 12.9413 71.4635 13.248V18.2944H69.5694V11.1915H71.2741L71.3688 11.8544C72.3519 11.3403 73.2404 11.0833 74.0341 11.0833C74.8909 11.0833 75.4817 11.3719 75.8064 11.9491C76.8707 11.3719 77.8178 11.0833 78.6476 11.0833ZM85.3102 11.0833C86.3384 11.0833 87.1773 11.426 87.8267 12.1115C88.4851 12.7789 88.8143 13.6538 88.8143 14.7362C88.8143 15.8186 88.4851 16.7025 87.8267 17.388C87.1773 18.0644 86.3384 18.4027 85.3102 18.4027C84.8502 18.4027 84.3361 18.3305 83.7679 18.1862V21.2438H81.8737V12.7744C81.8737 12.3776 82.0181 12.0844 82.3067 11.895C83.1275 11.3538 84.1286 11.0833 85.3102 11.0833ZM85.1884 16.8062C85.7206 16.8062 86.149 16.6213 86.4737 16.2515C86.7984 15.8727 86.9608 15.3766 86.9608 14.7633C86.9608 14.1589 86.7984 13.6674 86.4737 13.2886C86.149 12.9007 85.7206 12.7068 85.1884 12.7068C84.7284 12.7068 84.2549 12.8015 83.7679 12.9909V16.6033C84.282 16.7386 84.7555 16.8062 85.1884 16.8062ZM92.5376 16.5491L94.4452 11.178H96.4205L94.0664 17.415L93.7011 18.3621C93.4125 19.0746 93.1419 19.5887 92.8893 19.9044C92.4293 20.4456 91.8521 20.7162 91.1576 20.7162C90.4721 20.7162 89.8723 20.644 89.3581 20.4997L89.6287 18.9438C90.1789 19.0431 90.648 19.0927 91.0358 19.0927C91.2523 19.0927 91.4327 19.0205 91.577 18.8762L88.6817 11.178H90.6299L92.5376 16.5491ZM101.58 11.1103V12.9368C100.615 12.9368 99.7535 13.0946 98.9958 13.4103V18.2944H97.1017V11.1915H98.8064L98.9011 11.8544C99.8302 11.3584 100.723 11.1103 101.58 11.1103ZM108.607 14.9797V15.548H103.669C103.912 16.468 104.526 16.928 105.509 16.928C106.149 16.928 106.875 16.7566 107.687 16.4138L108.282 17.7262C107.326 18.1772 106.339 18.4027 105.319 18.4027C104.255 18.4027 103.394 18.0644 102.735 17.388C102.077 16.7025 101.748 15.8186 101.748 14.7362C101.748 13.6448 102.077 12.7654 102.735 12.098C103.394 11.4215 104.251 11.0833 105.306 11.0833C106.397 11.0833 107.218 11.4486 107.768 12.1791C108.327 12.9007 108.607 13.8342 108.607 14.9797ZM105.306 12.5444C104.846 12.5444 104.467 12.6978 104.169 13.0044C103.872 13.3111 103.687 13.726 103.615 14.2491H106.875C106.758 13.1127 106.235 12.5444 105.306 12.5444ZM112.777 11.0833C114.563 11.0833 115.456 12.1025 115.456 14.1409V18.2944H113.737L113.67 17.7397C113.038 18.1817 112.285 18.4027 111.41 18.4027C110.707 18.4027 110.147 18.2313 109.733 17.8886C109.327 17.5368 109.124 17.0542 109.124 16.4409C109.124 15.7284 109.462 15.1691 110.138 14.7633C110.815 14.3574 111.748 14.1544 112.939 14.1544C113.264 14.1544 113.471 14.1589 113.561 14.168V14.1003C113.561 13.5862 113.467 13.2119 113.277 12.9774C113.088 12.7429 112.79 12.6256 112.384 12.6256C111.672 12.6256 110.869 12.7925 109.976 13.1262L109.381 11.8138C110.58 11.3268 111.712 11.0833 112.777 11.0833ZM110.964 16.3597C110.964 16.7836 111.279 16.9956 111.911 16.9956C112.542 16.9956 113.092 16.8287 113.561 16.495V15.4533H113.115C111.681 15.4533 110.964 15.7554 110.964 16.3597ZM118.711 18.4027C118.296 18.4027 117.94 18.335 117.642 18.1997C117.354 18.0554 117.137 17.8705 116.993 17.645C116.858 17.4195 116.759 17.1986 116.695 16.9821C116.641 16.7656 116.614 16.5446 116.614 16.3191V8.24208H118.508V16.0486C118.508 16.4995 118.72 16.725 119.144 16.725C119.225 16.725 119.383 16.716 119.618 16.698L119.739 18.308C119.397 18.3711 119.054 18.4027 118.711 18.4027Z" fill="white"/>
<path d="M68.449 22.4721V24.2309H63.389V26.5038H67.6913V28.2627H63.389V30.5356H68.449V32.2944H62.4013C62.1307 32.2944 61.9052 32.2042 61.7248 32.0238C61.5445 31.8344 61.4543 31.6089 61.4543 31.3474V23.4191C61.4543 23.1576 61.5445 22.9366 61.7248 22.7562C61.9052 22.5668 62.1307 22.4721 62.4013 22.4721H68.449ZM74.3588 25.1915H76.4964L73.9258 28.7362L76.4964 32.2944H74.3723L72.7623 30.0215L71.1388 32.2944H69.0147L71.5853 28.7362L69.0147 25.1915H71.1388L72.7488 27.4374L74.3588 25.1915ZM79.7805 32.4027C78.7613 32.4027 77.9179 32.0644 77.2505 31.388C76.6011 30.6935 76.2764 29.8095 76.2764 28.7362C76.2764 27.6538 76.6011 26.7744 77.2505 26.098C77.9179 25.4215 78.7613 25.0833 79.7805 25.0833C80.5472 25.0833 81.404 25.3087 82.3511 25.7597L81.7423 27.1668C80.9846 26.8511 80.3713 26.6933 79.9022 26.6933C79.3611 26.6933 78.9281 26.8827 78.6034 27.2615C78.2787 27.6403 78.1164 28.1319 78.1164 28.7362C78.1164 29.3586 78.2787 29.8591 78.6034 30.238C78.9281 30.6078 79.3611 30.7927 79.9022 30.7927C80.4434 30.7927 81.0568 30.6709 81.7423 30.4274L82.3511 31.8344C81.4221 32.2133 80.5652 32.4027 79.7805 32.4027ZM87.7307 25.0833C89.1919 25.0833 89.9225 25.7958 89.9225 27.2209V32.2944H88.0284V27.8433C88.0284 27.4735 87.9472 27.2029 87.7848 27.0315C87.6225 26.8511 87.3474 26.7609 86.9595 26.7609C86.4274 26.7609 85.8095 26.9278 85.106 27.2615V32.2944H83.2119V22.2421H85.106V25.8409C86.044 25.3358 86.9189 25.0833 87.7307 25.0833ZM94.3778 25.0833C96.1637 25.0833 97.0566 26.1025 97.0566 28.1409V32.2944H95.3384L95.2707 31.7397C94.6393 32.1817 93.8862 32.4027 93.0113 32.4027C92.3078 32.4027 91.7486 32.2313 91.3337 31.8886C90.9278 31.5368 90.7248 31.0542 90.7248 30.4409C90.7248 29.7284 91.0631 29.1691 91.7395 28.7633C92.416 28.3574 93.3495 28.1544 94.5401 28.1544C94.8648 28.1544 95.0723 28.1589 95.1625 28.168V28.1003C95.1625 27.5862 95.0678 27.2119 94.8784 26.9774C94.6889 26.7429 94.3913 26.6256 93.9854 26.6256C93.2729 26.6256 92.4701 26.7925 91.5772 27.1262L90.9819 25.8138C92.1815 25.3268 93.3135 25.0833 94.3778 25.0833ZM92.5648 30.3597C92.5648 30.7836 92.8805 30.9956 93.5119 30.9956C94.1433 30.9956 94.6935 30.8287 95.1625 30.495V29.4533H94.716C93.2819 29.4533 92.5648 29.7554 92.5648 30.3597ZM102.734 25.0833C103.474 25.0833 104.024 25.2546 104.385 25.5974C104.745 25.9311 104.926 26.4723 104.926 27.2209V32.2944H103.032V27.8568C103.032 27.487 102.951 27.2164 102.788 27.045C102.626 26.8736 102.351 26.788 101.963 26.788C101.431 26.788 100.813 26.9503 100.109 27.275V32.2944H98.2153V25.1915H99.92L100.028 25.8815C101.02 25.3493 101.922 25.0833 102.734 25.0833ZM112.222 25.895C112.511 26.0754 112.655 26.3686 112.655 26.7744V32.1997C112.655 33.237 112.403 34.0082 111.898 34.5133C111.393 35.0184 110.612 35.2709 109.557 35.2709C108.529 35.2709 107.555 35.0995 106.635 34.7568L107.176 33.3497C107.924 33.6023 108.66 33.7286 109.381 33.7286C109.877 33.7286 110.234 33.6203 110.45 33.4038C110.666 33.1874 110.775 32.8221 110.775 32.308V32.1862C110.206 32.3305 109.692 32.4027 109.232 32.4027C108.213 32.4027 107.37 32.0644 106.702 31.388C106.053 30.6935 105.728 29.8095 105.728 28.7362C105.728 27.6629 106.053 26.788 106.702 26.1115C107.361 25.426 108.204 25.0833 109.232 25.0833C110.414 25.0833 111.411 25.3538 112.222 25.895ZM109.354 30.8062C109.769 30.8062 110.243 30.7386 110.775 30.6033V26.9909C110.288 26.8015 109.814 26.7068 109.354 26.7068C108.822 26.7068 108.394 26.9007 108.069 27.2886C107.744 27.6674 107.582 28.1589 107.582 28.7633C107.582 29.3766 107.744 29.8727 108.069 30.2515C108.394 30.6213 108.822 30.8062 109.354 30.8062ZM120.413 28.9797V29.548H115.475C115.718 30.468 116.332 30.928 117.315 30.928C117.955 30.928 118.681 30.7566 119.493 30.4138L120.088 31.7262C119.132 32.1772 118.145 32.4027 117.125 32.4027C116.061 32.4027 115.2 32.0644 114.541 31.388C113.883 30.7025 113.554 29.8186 113.554 28.7362C113.554 27.6448 113.883 26.7654 114.541 26.098C115.2 25.4215 116.057 25.0833 117.112 25.0833C118.203 25.0833 119.024 25.4486 119.574 26.1791C120.133 26.9007 120.413 27.8342 120.413 28.9797ZM117.112 26.5444C116.652 26.5444 116.273 26.6978 115.975 27.0044C115.678 27.3111 115.493 27.726 115.421 28.2491H118.681C118.564 27.1127 118.041 26.5444 117.112 26.5444Z" fill="white" fill-opacity="0.5"/>
</svg>
